<svg xmlns="http://www.w3.org/2000/svg" viewBox="0 0 82.08 84.98"><defs><style>.cls-1{fill:#242728;}</style></defs><g id="Layer_2" data-name="Layer 2"><g id="Layer_1-2" data-name="Layer 1"><path class="cls-1" d="M38.14,6.93,9.94,21.46V53.94l28.2,17.73L66.31,53.94V21.46Zm-4.56,51L18.84,49V32.46l14.74,8.77Zm-9.8-33.08,14.41-7.6,15,7.62-15,8.38ZM42.37,58V41.25l15-8.77V49Z"/><path class="cls-1" d="M46.63,8c-.07-.13,0-.32.21-.59a6.31,6.31,0,0,1,1-1,27.39,27.39,0,0,1,4.54-2.84A35.68,35.68,0,0,1,56,2,31.6,31.6,0,0,1,60.5.61l.64-.13L61.8.35c.44-.07.9-.15,1.37-.19L64.6,0c.49,0,1,0,1.51,0a18.27,18.27,0,0,1,3.22.29,15.77,15.77,0,0,1,3.42,1,14.16,14.16,0,0,1,3.34,2l.39.32c.13.11.26.22.38.34l.37.35a3.15,3.15,0,0,1,.36.37,10.21,10.21,0,0,1,.69.77c.11.13.22.27.32.41l.32.42.29.43c.1.15.19.3.28.45l.14.22.13.23.25.47.23.47.12.24.1.24.21.48.19.49.09.25.08.25.17.5.14.5a1.25,1.25,0,0,0,.07.26l.06.25.12.51.11.51,0,.26v.26l.08.52a26.14,26.14,0,0,1,.25,4.15,34,34,0,0,1-.34,4.15,47.28,47.28,0,0,1-2,8.19,68.2,68.2,0,0,1-3.34,8A82.82,82.82,0,0,1,72,46.35,99.93,99.93,0,0,1,60.46,61a99.93,99.93,0,0,1-14,12.31,82.34,82.34,0,0,1-7.54,4.82,68.43,68.43,0,0,1-7.81,3.77A47.28,47.28,0,0,1,23,84.34a33.6,33.6,0,0,1-4.13.56,26.39,26.39,0,0,1-4.17,0l-1-.12-.52-.08-.51-.1-.52-.1-.51-.12c-.34-.1-.68-.18-1-.29a17.88,17.88,0,0,1-2-.76c-.32-.15-.63-.3-.94-.47l-.46-.26-.45-.28a14.41,14.41,0,0,1-1.66-1.25c-.27-.22-.51-.46-.75-.69s-.47-.5-.69-.75a14.1,14.1,0,0,1-2.11-3.24A16.1,16.1,0,0,1,.45,73,19.12,19.12,0,0,1,0,69.83v-3a12.23,12.23,0,0,1,.13-1.37,4.91,4.91,0,0,1,.09-.67c0-.22.06-.43.1-.64a34.79,34.79,0,0,1,1.12-4.61c.45-1.37.93-2.58,1.4-3.65a26.13,26.13,0,0,1,2.59-4.69,6,6,0,0,1,.93-1.08q.38-.33.57-.24c.13.06.19.26.2.59A8.12,8.12,0,0,1,7,51.91c-.21,1.18-.62,2.87-1.06,5-.21,1.07-.43,2.26-.62,3.56a36.44,36.44,0,0,0-.36,4.18v2.84l0,.59a4,4,0,0,0,.08.58l.09.58a15.06,15.06,0,0,0,.58,2.29,11.18,11.18,0,0,0,1,2.13,8.8,8.8,0,0,0,1.42,1.8l.43.39c.16.12.3.24.46.35a9.35,9.35,0,0,0,1,.63A11.77,11.77,0,0,0,15.14,78a20,20,0,0,0,3-.16,27.29,27.29,0,0,0,3.22-.62,42.6,42.6,0,0,0,6.7-2.36,64.48,64.48,0,0,0,6.79-3.56c2.31-1.4,4.56-2.92,6.72-4.54a102.32,102.32,0,0,0,12.8-11.46,102.53,102.53,0,0,0,10.74-13.4,76.34,76.34,0,0,0,4.17-7,64.83,64.83,0,0,0,3.19-7,41.63,41.63,0,0,0,2-6.82,27.79,27.79,0,0,0,.46-3.26,22.32,22.32,0,0,0,0-3.06,11.54,11.54,0,0,0-1.46-5,2.13,2.13,0,0,0-.16-.25c0-.08-.1-.17-.16-.25a4.1,4.1,0,0,0-.35-.47l0-.27-.2-.21a1.34,1.34,0,0,0-.2-.21l-.2-.21A8.16,8.16,0,0,0,70.31,6.6a10.65,10.65,0,0,0-2.16-.88,15.36,15.36,0,0,0-2.32-.46c-.39-.06-.78-.08-1.17-.11s-.77,0-1.16,0H61.24a36.19,36.19,0,0,0-4.16.58c-1.28.25-2.46.54-3.52.81-2.12.55-3.79,1-5,1.33a9,9,0,0,1-1.38.23C46.9,8.17,46.69,8.12,46.63,8Z"/></g></g></svg>