<?xml version="1.0" encoding="utf-8"?>
<!-- Generator: Adobe Illustrator 26.0.3, SVG Export Plug-In . SVG Version: 6.00 Build 0)  -->
<svg version="1.1" id="Layer_1" xmlns="http://www.w3.org/2000/svg" xmlns:xlink="http://www.w3.org/1999/xlink" x="0px" y="0px"
	 viewBox="0 0 128 128" style="enable-background:new 0 0 128 128;" xml:space="preserve">
<style type="text/css">
	.st0{fill:#96C5B0;stroke:#96C5B0;stroke-miterlimit:10;}
</style>
<g id="Payment_Processed">
	<path class="st0" d="M57,40.4c-9.9,0-18,6.2-18,13.8S47.1,68,57,68s18-6.2,18-13.8S66.9,40.4,57,40.4z M57,66
		c-8.8,0-16-5.3-16-11.8s7.2-11.8,16-11.8s16,5.3,16,11.8S65.8,66,57,66z"/>
	<path class="st0" d="M56,83.7v5.9c0,0.5,0.4,1,1,1s1-0.4,1-1v-5.9c0-0.5-0.4-1-1-1S56,83.2,56,83.7z"/>
	<path class="st0" d="M58,24.6v-5.9c0-0.5-0.4-1-1-1s-1,0.4-1,1v5.9c0,0.5,0.4,1,1,1S58,25.2,58,24.6z"/>
	<path class="st0" d="M88,46.9V3c0-0.5-0.4-1-1-1H27c-0.6,0-1,0.4-1,1v102.4c0,0.5,0.4,1,1,1h19v3.3c0,7,2.8,13.6,7.8,18.5
		c0.4,0.4,1,0.4,1.4,0c0.4-0.4,0.4-1,0-1.4c-4.6-4.5-7.2-10.7-7.2-17.1v-3.3h18.3c-1.6,4.5-1.4,7.6-1.4,11.8c0,0.5,0.4,1,1,1
		s1-0.4,1-1v-3.7c0-7.3,3-10.5,4.5-14.6c1.2-2.4,2-7.9,1.1-12.8l-2.8-15.8c-0.6-3.1,1.5-6,4.6-6.5c3.1-0.5,6.1,1.5,6.6,4.6
		c5.2,29.3,4.8,27.5,5.1,27.8c0.3,0.4,1,0.5,1.4,0.1c0.1-0.1,0.2-0.2,0.3-0.3C88,96.7,88,99.6,88,49.7c7.7,8.4,12,19.4,12,30.8V127
		c0,0.5,0.4,1,1,1s1-0.4,1-1V80.5C102,67.9,97,55.8,88,46.9z M67.8,71.7c3,16.6,4.3,19.8,2,26.7H42c-0.5-4.1-3.8-7.4-8-7.9V17.8
		c4.2-0.4,7.6-3.7,8-7.9h30c0.4,4.2,3.8,7.4,8,7.9v46.4c-3.5-2.5-8.3-1.7-10.9,1.7C67.9,67.6,67.4,69.7,67.8,71.7z M82,66.3V16.8
		c0-0.5-0.4-1-1-1c-3.9,0-7-3.1-7-6.9c0-0.5-0.4-1-1-1H41c-0.6,0-1,0.4-1,1c0,3.8-3.1,6.9-7,6.9c-0.6,0-1,0.4-1,1v74.8
		c0,0.5,0.4,1,1,1c3.9,0,7,3.1,7,6.9c0,0.5,0.4,1,1,1h28.1c-0.8,2-1,1.9-1.9,3.9H28V4h58v81.2C82.9,68,83.1,68,82,66.3z"/>
</g>
</svg>
