<svg xmlns="http://www.w3.org/2000/svg" viewBox="0 0 187.29 157.16"><defs><style>.cls-1{fill:#60beff;}.cls-2{fill:#1a4199;}.cls-3{fill:#3ca9e5;}.cls-4{fill:#2853c3;}</style></defs><g id="Layer_2" data-name="Layer 2"><g id="Layer_1-2" data-name="Layer 1"><path class="cls-1" d="M0,26.19V128.93a3.53,3.53,0,0,0,.48,1.76A3.63,3.63,0,0,0,1.8,132l45.06,25.18V52.31Z"/><path class="cls-2" d="M140.43,0l45.06,25.17a3.71,3.71,0,0,1,1.31,1.3,3.44,3.44,0,0,1,.49,1.76V131l-46.86-26.2Z"/><path class="cls-3" d="M46.78,157.16,93.64,131l-46.86-26.2Z"/><path class="cls-3" d="M48.59,1l91.84,51.37v52.38L0,26.2,45.06,1A3.49,3.49,0,0,1,46.82.55,3.55,3.55,0,0,1,48.59,1Z"/><path class="cls-4" d="M140.43,0,93.64,26.19l46.79,26.2Z"/><path class="cls-4" d="M187.29,131l-45.06,25.17a3.9,3.9,0,0,1-3.6,0L46.78,104.77V52.31Z"/></g></g></svg>