<?xml version="1.0" encoding="utf-8"?>
<!-- Generator: Adobe Illustrator 26.0.3, SVG Export Plug-In . SVG Version: 6.00 Build 0)  -->
<svg version="1.1" id="Layer_1" xmlns="http://www.w3.org/2000/svg" xmlns:xlink="http://www.w3.org/1999/xlink" x="0px" y="0px"
	 viewBox="0 0 128 128" style="enable-background:new 0 0 128 128;" xml:space="preserve">
<style type="text/css">
	.st0{fill:#5762D5;stroke:#5762D5;stroke-miterlimit:10;}
</style>
<g id="Protection">
	<path class="st0" d="M114,14C96.6,14,79.4,9.2,64.5,0.1c-0.1-0.1-0.5-0.3-1.2,0.1C48.4,9.2,31.4,14,14,14c-0.6,0-1,0.4-1,1v43.7
		c0,32.4,20.9,61,50.8,69.3c0.2,0,0.4,0,0.5,0c29.9-8.4,50.7-36.9,50.7-69.3V15C115,14.4,114.6,14,114,14z M113,58.7
		c0,31.4-20.1,59-49,67.3c-28.8-8.2-49-35.9-49-67.3V16c17.3-0.2,34.2-5,49-13.8C78.8,11,95.7,15.8,113,16V58.7z"/>
	<path class="st0" d="M21.9,21.7c-0.5,0-0.9,0.5-0.9,1v36c0,27.8,17.6,52.8,42.7,61c0.2,0.1,0.4,0.1,0.6,0
		c25.2-8.2,42.7-33.2,42.7-61v-36c0-0.5-0.4-1-0.9-1c-14.6-1.1-28.7-5.3-41.6-12.3c-0.3-0.2-0.7-0.2-1,0
		C50.7,16.3,36.5,20.5,21.9,21.7z M105,23.7v35c0,26.8-16.8,50.9-41,58.9c-24.1-8-41-32.1-41-58.9v-35c14.4-1.2,28.3-5.4,41-12.3
		C76.7,18.2,90.6,22.4,105,23.7L105,23.7z"/>
	<path class="st0" d="M64,86c13.3,0,24-10.7,24-24S77.3,38,64,38S40,48.7,40,62S50.7,86,64,86z M64,40c12.2,0,22,9.8,22,22
		s-9.8,22-22,22s-22-9.8-22-22S51.8,40,64,40z"/>
	<path class="st0" d="M59.3,70.7c0.4,0.4,1,0.4,1.4,0c0,0,0,0,0,0l16-16c0.4-0.4,0.4-1,0-1.4c-0.4-0.4-1-0.4-1.4,0l0,0L60,68.6
		l-7.3-7.3c-0.4-0.4-1-0.4-1.4,0s-0.4,1,0,1.4l0,0L59.3,70.7z"/>
</g>
</svg>
