<?xml version="1.0" encoding="utf-8"?>
<!-- Generator: Adobe Illustrator 26.0.3, SVG Export Plug-In . SVG Version: 6.00 Build 0)  -->
<svg version="1.1" id="Layer_1" xmlns="http://www.w3.org/2000/svg" xmlns:xlink="http://www.w3.org/1999/xlink" x="0px" y="0px"
	 viewBox="0 0 128 128" style="enable-background:new 0 0 128 128;" xml:space="preserve">
<style type="text/css">
	.st0{fill:#9984D4;stroke:#9984D4;stroke-miterlimit:10;}
</style>
<g id="Paper_plane_Message">
	<path class="st0" d="M128,5.9c-0.1-0.5-0.5-0.9-1.1-0.9c-0.4,0,5.5-3-126.4,67.1C0,72.3-0.2,72.9,0,73.4c0.1,0.3,0.4,0.5,0.7,0.6
		l39.5,13.2c6.7,19.6,12,35.3,12,35.2c0.2,0.4,0.5,0.6,0.9,0.6c0.7,0-0.6,1,24-23.4c36.3,12.2,33.9,11.6,34.5,11.2S128,6,128,5.9z
		 M120.7,10.5l-80,74.8L3.6,72.8L120.7,10.5z M118.4,15.4C56.2,95.8,59,92.2,58.9,92.5s0.4-1.9-6.1,25.8L42.1,86.7L118.4,15.4z
		 M54.8,118.8l5.8-24.7l14.2,4.8L54.8,118.8z M110.2,108.6L61.5,92.3l63.8-82.5L110.2,108.6z"/>
</g>
</svg>
